<svg xmlns="http://www.w3.org/2000/svg" width="410" height="404" viewBox="0 0 410 404">
  <defs>
    <linearGradient id="vite-grad" x1="100%" y1="0%" x2="0%" y2="100%">
      <stop offset="0%" stop-color="#41D1FF" />
      <stop offset="100%" stop-color="#BD34FE" />
    </linearGradient>
    <linearGradient id="vite-grad-2" x1="100%" y1="0%" x2="0%" y2="100%">
      <stop offset="0%" stop-color="#FFEA83" />
      <stop offset="8.333%" stop-color="#FFDD35" />
      <stop offset="100%" stop-color="#FFA800" />
    </linearGradient>
  </defs>
  <path
    d="M399.641 59.525L215.643 388.545c-5.966 10.832-21.635 10.847-27.622.027L10.395 59.556c-6.19-10.993 2.115-24.24 14.04-22.248l178.492 29.872a15.998 15.998 0 0 0 5.325-.035l176.491-29.84c11.907-2.013 20.81 11.157 14.667 22.154Z"
    fill="url(#vite-grad)"
  />
  <path
    d="M292.965.006 156.801 27.532a8 8 0 0 0-6.35 6.648l-19.806 141.32a8 8 0 0 0 9.579 8.868l39.711-7.962c5.173-1.037 9.768 3.361 8.85 8.57l-11.8 68.607c-.97 5.633 4.434 10.288 9.946 8.517l24.47-7.85c5.516-1.769 10.924 2.883 9.931 8.519l-18.685 107.67c-1.397 8.05 9.266 12.094 13.352 5.125l1.313-2.236 115.418-270.945c2.429-5.706-2.566-11.816-8.703-10.63l-40.793 7.923c-5.196 1.01-9.803-3.408-8.863-8.623l16.677-93.055c.94-5.252-3.763-9.66-8.94-8.61Z"
    fill="url(#vite-grad-2)"
  />
</svg>
